<svg xmlns="http://www.w3.org/2000/svg" width="23" height="25" src="https://curaprox.com.au/themes/classic-rocket/assets/img/tooth.svg"><path d="M6.491 24c1.222 0 1.466-.853 1.466-4.812 0-2.934 1.466-5.084 3.526-5.118 2.059.034 3.525 2.15 3.525 5.118 0 3.959.28 4.812 1.466 4.812 1.431 0 2.373-3.788 2.373-9.453 0-1.74 2.653-5.596 2.653-8.292C21.5 3.525 19.79 1 16.23 1c-3.56 0-4.747 1.98-4.747 1.98S10.33 1 6.77 1C3.21 1 1.5 3.525 1.5 6.255c0 2.696 2.653 6.552 2.653 8.292 0 1.707-.07 9.453 2.338 9.453z" stroke="#ffffff" stroke-width="2px" fill="none" stroke-linejoin="bevel"></path></svg>