<svg class="d-sm-none" width="1608" height="2000" viewBox="0 0 1608 2000" version="1.1" xmlns="http://www.w3.org/2000/svg" xmlns:xlink="http://www.w3.org/1999/xlink"> <desc>Created with Sketch.</desc> <g id="Page-1" stroke="none" stroke-width="1" fill="none" fill-rule="evenodd"> <g id="htb_m" fill="none"> <g id="pink" fill="#f8ada7"> <path d="M0.60456,6.63395985 C308.15127,-22.3826627 511.011453,83.1677398 433.859533,250.383694 C370.953447,386.723802 281.633469,948.261929 449.164736,1377.22891 C504.11725,1524.54742 530.498029,1778.74551 493.490039,1862.87536 C416.317278,2038.31131 119.752469,1947.65256 0.60456,1862.87536 L0.60456,6.63395985 Z" id="end" fill="#f8ada7"></path> <path d="M0.60456,6.63395985 C247.188714,-21.8869833 394.113389,48.649039 433.859533,250.383694 C466.934256,418.257034 449.164736,1204.03252 449.164736,1377.22891 C449.164736,1576.11517 539.193715,1629.63146 493.490039,1862.87536 C447.786363,2096.11924 129.282941,1985.76531 0.60456,1862.87536 L0.60456,6.63395985 Z" id="mid" fill="#f8ada7"></path> <path d="M0.60456,6.63395985 C221.778995,14.1053858 367.099105,91.50044 433.859533,250.383694 C524.449467,440.23321 413.920864,1197.13414 449.164736,1377.22891 C484.408608,1566.56691 588.81068,1645.45317 493.490039,1862.87536 C424.461551,2035.79719 248.900638,2024.94844 0.60456,1862.87536 C0.60456,1862.87536 0.60456,6.63395985 0.60456,6.63395985 C0.60456,6.63395985 0.60456,6.63395985 0.60456,6.63395985" id="start" fill="#f8ada7"></path> </g> <g id="blue" transform="translate(1012.000000, 52.104914)" fill="#99dbf3"> <path d="M596,27.5198342 C467.007999,9.67241486 192.26434,9.67241486 112.422211,209.131553 C70.9794053,325.098426 -25.8171066,590.953531 91.964495,1001.29287 C209.746097,1411.63222 463.803341,1063.48534 500.33141,1127.8832 C536.859479,1192.28107 295.234723,1324.31638 238.10618,1479.30833 C199.358649,1584.43187 112.422211,1856.20095 596,1808.12005 L596,27.5198342 Z" id="end" fill="#99dbf3"></path> <path d="M596,27.5198342 C384.642461,-45.4709541 204.915845,69.0861471 112.422211,209.131553 C-14.369719,401.108302 -48.3485952,739.691548 91.964495,1001.29287 C232.277585,1262.8942 401.886973,804.762295 500.33141,1127.8832 C598.775847,1451.00411 261.828296,1251.28845 238.10618,1479.30833 C210.767389,1742.09212 279.328042,1808.12005 596,1808.12005 L596,27.5198342 Z" id="mid" fill="#99dbf3"></path> <path d="M596,27.5198342 C384.642461,-45.4709541 196.813821,31.037593 112.422211,209.131553 C-9.86851903,469.766843 -14.4195172,865.268351 91.964495,1001.29287 C198.348505,1137.3174 464.93079,910.400678 500.33141,1127.8832 C535.73203,1345.36572 246.636653,1244.08443 238.10618,1479.30833 C228.275151,1675.95735 285.218507,1746.38478 596,1808.12005 C596,1808.12005 596,27.5198342 596,27.5198342 C596,27.5198342 596,27.5198342 596,27.5198342" id="start" fill="#99dbf3"></path> </g> </g> </g> </svg>