<svg class="d-none d-sm-block" width="1903" height="1243" viewBox="0 0 1608 905" version="1.1" xmlns="http://www.w3.org/2000/svg" xmlns:xlink="http://www.w3.org/1999/xlink"><g id="htb-wrap" stroke="none" stroke-width="1" fill="none" fill-rule="evenodd"> <g id="htb" fill="none"> <g id="pink" fill="#f8ada7"> <path d="M0.60456,3 C308.15127,-10.1218563 511.011453,37.6099984 433.859533,113.228162 C370.953447,174.883694 281.633469,428.821677 449.164736,622.808524 C504.11725,689.428691 530.498029,804.381796 493.490039,842.426874 C416.317278,921.762276 119.752469,880.764702 0.60456,842.426874 L0.60456,3 Z" id="end" fill="#f8ada7"></path> <path d="M0.60456,3 C247.188714,-9.89770086 394.113389,22 433.859533,113.228162 C466.934256,189.143608 449.164736,544.485896 449.164736,622.808524 C449.164736,712.748589 539.193715,736.949649 493.490039,842.426874 C447.786363,947.904099 129.282941,898 0.60456,842.426874 L0.60456,3 Z" id="mid" fill="#f8ada7"></path> <path d="M0.60456,3C236.135486436666,-2.81745877325778,382.362175265729,30.429517154773002,433.859533,113.228162C491.953372962741,193.466653323223,433.833651528011,543.1288795336341,449.164736,622.808524C464.495820471989,710.8703005670341,560.777094678256,740.062018319565,493.490039,842.426874C437.64006984672903,936.037841172081,181.316639270081,905.707912222879,0.60456,842.426874C0.60456,842.426874,0.60456,3,0.60456,3C0.60456,3,0.60456,3,0.60456,3" id="start" fill="#f8ada7"></path> </g> <g id="blue" transform="translate(1012.000000, 22.000000)" fill="#99dbf3"> <path d="M596,14.0077917 C467.007999,5.9368568 192.26434,5.9368568 112.422211,96.135988 C70.9794053,148.578364 -25.8171066,268.802986 91.964495,454.366067 C209.746097,639.929148 463.803341,482.490657 500.33141,511.612568 C536.859479,540.734479 295.234723,600.443301 238.10618,670.533542 C199.358649,718.072367 112.422211,840.971396 596,819.228316 L596,14.0077917 Z" id="end" fill="#99dbf3"></path> <path d="M596,14.0077917 C384.642461,-19 204.915845,32.8048513 112.422211,96.135988 C-14.369719,182.951444 -48.3485952,336.065083 91.964495,454.366067 C232.277585,572.667051 401.886973,365.491285 500.33141,511.612568 C598.775847,657.733851 261.828296,567.418716 238.10618,670.533542 C210.767389,789.369263 279.328042,819.228316 596,819.228316 L596,14.0077917 Z" id="mid" fill="#99dbf3"></path> <path d="M596,14.0077917C384.642461,-19,201.3898442413696,25.31668534742144,112.422211,96.135988C-12.410796771837438,196.46382439054338,-33.5826604559319,360.7792926144589,91.964495,454.366067C217.511649196864,547.9528416642432,429.32364235632895,386.28150310505725,500.33141,511.612568C571.3391776436711,636.9436331736448,255.21689292879873,566.00092368128,238.10618,670.533542C218.38676691638528,776.3535731935411,281.89157243815424,807.0784735686041,596,819.228316C596,819.228316,596,14.0077917,596,14.0077917C596,14.0077917,596,14.0077917,596,14.0077917" id="start" fill="#99dbf3"></path> </g> </g> </g> <desc>Created with Sketch</desc><defs></defs></svg>